<svg width="65" height="64" viewBox="0 0 65 64" fill="none" xmlns="http://www.w3.org/2000/svg">
<ellipse cx="32.2157" cy="31.6455" rx="32.2157" ry="31.6455" fill="white"/>
<path d="M30.9167 42.5196C31.2688 42.8623 31.7408 43.0541 32.2322 43.0541C32.7235 43.0541 33.1955 42.8623 33.5476 42.5196L40.1483 36.0791C40.3393 35.9098 40.4939 35.7035 40.6028 35.4727C40.7118 35.2418 40.7727 34.9913 40.7819 34.7363C40.7911 34.4812 40.7485 34.2269 40.6566 33.9888C40.5647 33.7507 40.4254 33.5337 40.2472 33.351C40.069 33.1684 39.8555 33.0237 39.6198 32.9259C39.384 32.8282 39.1309 32.7793 38.8756 32.7822C38.6204 32.7851 38.3685 32.8398 38.135 32.9429C37.9016 33.0461 37.6915 33.1955 37.5175 33.3823L34.1228 36.6921V22.3024C34.1228 21.8023 33.9241 21.3226 33.5704 20.9689C33.2168 20.6152 32.7371 20.4165 32.2369 20.4165C31.7367 20.4165 31.257 20.6152 30.9033 20.9689C30.5496 21.3226 30.3509 21.8023 30.3509 22.3024V36.6921L26.9563 33.3823C26.5936 33.0608 26.1212 32.8912 25.6369 32.9087C25.1526 32.9263 24.6936 33.1296 24.3552 33.4765C24.0168 33.8234 23.8249 34.2873 23.8193 34.7719C23.8138 35.2565 23.995 35.7246 24.3254 36.0791L30.9167 42.5196Z" fill="black"/>
<path d="M31.9858 12.2499C28.0824 12.2499 24.2667 13.4074 21.0211 15.576C17.7756 17.7446 15.246 20.8269 13.7522 24.4332C12.2584 28.0395 11.8676 32.0077 12.6291 35.8361C13.3906 39.6645 15.2703 43.1811 18.0304 45.9412C20.7905 48.7013 24.3071 50.581 28.1355 51.3425C31.9639 52.104 35.9322 51.7132 39.5384 50.2194C43.1447 48.7257 46.227 46.1961 48.3957 42.9505C50.5643 39.7049 51.7218 35.8892 51.7218 31.9858C51.7218 26.7515 49.6424 21.7316 45.9412 18.0304C42.24 14.3292 37.2201 12.2499 31.9858 12.2499ZM31.9858 48.9995C28.6208 48.9995 25.3314 48.0017 22.5335 46.1322C19.7356 44.2627 17.5549 41.6055 16.2672 38.4967C14.9795 35.3878 14.6425 31.9669 15.299 28.6666C15.9555 25.3663 17.5759 22.3347 19.9553 19.9553C22.3347 17.5759 25.3663 15.9555 28.6666 15.299C31.967 14.6425 35.3878 14.9794 38.4967 16.2672C41.6056 17.5549 44.2627 19.7356 46.1322 22.5335C48.0017 25.3314 48.9996 28.6208 48.9996 31.9858C48.9996 34.2201 48.5595 36.4325 47.7045 38.4967C46.8494 40.5609 45.5962 42.4365 44.0164 44.0163C42.4365 45.5962 40.5609 46.8494 38.4967 47.7044C36.4325 48.5595 34.2201 48.9995 31.9858 48.9995Z" fill="black"/>
</svg>
