<svg width="63" height="76" viewBox="0 0 63 76" fill="none" xmlns="http://www.w3.org/2000/svg">
<path d="M32.6752 72.522C34.7504 70.9374 36.8317 69.3602 38.9069 67.7756C39.8463 67.0607 40.7979 66.3532 41.7127 65.5867C43.8862 63.7663 45.9245 61.6953 47.7357 59.3663C51.3213 54.7453 54.0473 49.2693 55.7725 43.3068C57.1785 38.4352 57.7802 33.2982 57.7802 28.1539V18.3442C57.7802 17.025 57.0127 15.8753 55.9751 15.4994C55.2261 15.2267 54.4832 14.9466 53.7649 14.5855C53.9613 14.6813 54.1578 14.7845 54.3543 14.8803C53.0711 14.2244 51.8677 13.3842 50.7626 12.3671L51.2599 12.8314C50.167 11.8143 49.1847 10.6425 48.3374 9.33059L48.7242 9.92757C47.8769 8.60095 47.1709 7.14904 46.6244 5.60868C46.7043 5.84453 46.7902 6.08037 46.87 6.31621C46.6858 5.78557 46.5139 5.24018 46.3666 4.69479C46.035 3.44924 45.1079 2.52797 43.9967 2.52797H21.9615C20.9484 2.52797 19.9293 2.49112 18.9162 2.52797H18.8732C17.7558 2.52797 16.8349 3.44924 16.5033 4.69479C16.356 5.24755 16.1902 5.78557 15.9999 6.31621C16.0797 6.08037 16.1656 5.84453 16.2455 5.60868C15.699 7.14904 14.993 8.59358 14.1457 9.92757L14.5325 9.33059C13.6852 10.6425 12.7029 11.8143 11.61 12.8314L12.1073 12.3671C11.0022 13.3842 9.79269 14.2244 8.51565 14.8803C8.71211 14.7845 8.90858 14.6813 9.10505 14.5855C8.38057 14.9466 7.64382 15.2267 6.89478 15.4994C5.85718 15.8753 5.08972 17.025 5.08972 18.3442V27.2326C5.08972 28.7951 5.08972 30.3575 5.18182 31.92C5.37829 35.0965 5.82648 38.2657 6.56938 41.3243C8.04289 47.3973 10.597 52.9912 13.9861 57.8186C16.62 61.57 19.7942 64.6065 23.2324 67.2229L30.029 72.3967C30.0842 72.4409 30.1456 72.4851 30.2009 72.5293C31.2876 73.3548 32.9576 72.8463 33.5593 71.4681C34.1978 70.0088 33.8356 68.321 32.6752 67.4366C31.57 66.5964 30.4649 65.7562 29.3659 64.916C27.9538 63.84 26.5478 62.7713 25.1357 61.6953C24.1472 60.9435 23.1833 60.1402 22.25 59.2853L22.7474 59.7496C20.4266 57.5901 18.3391 55.0843 16.5402 52.2984L16.927 52.8954C15.0973 50.0431 13.5747 46.9182 12.402 43.6016C12.4819 43.8375 12.5678 44.0733 12.6476 44.3092C11.4504 40.8968 10.6338 37.3149 10.2225 33.6446C10.2532 33.9026 10.2839 34.1679 10.3084 34.4258C10.0444 32.0379 10.0014 29.65 10.0014 27.2547V18.3737C9.39975 19.3245 8.79807 20.2678 8.19638 21.2186C10.3146 20.4521 12.3652 19.435 14.1641 17.8799C16.2946 16.0374 18.1119 13.7674 19.4626 11.0552C20.2055 9.56644 20.8011 7.94501 21.2431 6.2941C20.4511 7.01638 19.6652 7.73865 18.8732 8.46092H40.9084C41.9215 8.46092 42.9407 8.4904 43.9537 8.46092H43.9967C43.2047 7.73865 42.4188 7.01638 41.6268 6.2941C43.1678 12.0649 46.6674 17.084 51.2599 19.6782C52.365 20.3047 53.5008 20.7911 54.6735 21.2186C54.0718 20.2678 53.4701 19.3245 52.8685 18.3737V28.8246C52.8685 30.6966 52.7641 32.5686 52.5615 34.4258C52.5922 34.1679 52.6229 33.9026 52.6474 33.6446C52.2299 37.3076 51.4134 40.8968 50.2223 44.3092C50.3021 44.0733 50.388 43.8375 50.4679 43.6016C49.2952 46.9182 47.7726 50.0431 45.9429 52.8954L46.3297 52.2984C44.5308 55.0843 42.4433 57.5901 40.1226 59.7496L40.6199 59.2853C39.2446 60.5603 37.7833 61.6584 36.3221 62.7787C34.7012 64.0169 33.0804 65.2477 31.4595 66.4859C31.042 66.8028 30.6184 67.1271 30.2009 67.444C29.6667 67.8493 29.2431 68.461 29.0712 69.2054C28.9116 69.913 28.9852 70.849 29.3168 71.4754C30.0167 72.7726 31.5148 73.4064 32.6752 72.522Z" fill="black"/>
<path d="M18.9224 37.5802L25.2278 45.1493L26.1242 46.2254C27.0636 47.353 28.6599 47.353 29.5993 46.2254L34.468 40.3809L42.1733 31.1314L43.9476 29.0014C44.8563 27.9106 44.9238 25.906 43.9476 24.8299C42.9653 23.7465 41.4427 23.6654 40.4726 24.8299L35.6038 30.6744L27.8986 39.9239L26.1242 42.0539H29.5993L23.2938 34.4848L22.3975 33.4087C21.4888 32.318 19.8188 32.2369 18.9224 33.4087C18.0199 34.588 17.9524 36.4084 18.9224 37.5802Z" fill="black"/>
</svg>
