<svg width="79" height="75" viewBox="0 0 79 75" fill="none" xmlns="http://www.w3.org/2000/svg">
<path fill-rule="evenodd" clip-rule="evenodd" d="M6.16691 4.65933C5.84039 4.66427 5.52923 4.79184 5.30158 5.01412C5.07393 5.2364 4.94833 5.53526 4.95229 5.84527V50.3273C4.95039 50.3648 4.95039 50.4023 4.95229 50.4398V68.8195C4.89292 69.0259 4.89421 69.2438 4.95601 69.4495C5.0178 69.6553 5.13775 69.841 5.30285 69.9867C5.45605 70.1369 5.64878 70.2454 5.86105 70.301C6.07333 70.3567 6.29741 70.3574 6.51007 70.3031H72.8429C73.1703 70.3031 73.4843 70.1796 73.7157 69.9598C73.9472 69.7401 74.0773 69.442 74.0773 69.1312C74.0773 68.8204 73.9472 68.5223 73.7157 68.3026C73.4843 68.0828 73.1703 67.9593 72.8429 67.9593H64.2023V36.3187C64.2023 36.0079 64.0722 35.7098 63.8407 35.4901C63.6093 35.2703 63.2953 35.1468 62.9679 35.1468H55.5617C55.2343 35.1468 54.9203 35.2703 54.6888 35.4901C54.4573 35.7098 54.3273 36.0079 54.3273 36.3187V67.9593H49.3898V45.6937C49.3898 45.3829 49.2597 45.0848 49.0282 44.8651C48.7968 44.6453 48.4828 44.5218 48.1554 44.5218H40.7492C40.4218 44.5218 40.1078 44.6453 39.8763 44.8651C39.6448 45.0848 39.5148 45.3829 39.5148 45.6937V67.9593H34.5773V41.0062C34.5773 40.6954 34.4472 40.3973 34.2157 40.1776C33.9843 39.9578 33.6703 39.8343 33.3429 39.8343H25.9367C25.6093 39.8343 25.2953 39.9578 25.0638 40.1776C24.8323 40.3973 24.7023 40.6954 24.7023 41.0062V67.9593H19.7648V52.725C19.7648 52.4142 19.6347 52.1161 19.4032 51.8963C19.1718 51.6765 18.8578 51.5531 18.5304 51.5531H11.1242C10.7968 51.5531 10.4828 51.6765 10.2513 51.8963C10.0198 52.1161 9.88979 52.4142 9.88979 52.725V67.9593H7.42104V50.9085L30.0545 31.9804L40.3591 40.0546C40.5905 40.2342 40.8828 40.328 41.1815 40.3185C41.4803 40.309 41.7652 40.1969 41.9835 40.0031L61.7335 22.596V24.6C61.7335 24.9108 61.8636 25.2088 62.0951 25.4286C62.3266 25.6484 62.6405 25.7718 62.9679 25.7718C63.2953 25.7718 63.6093 25.6484 63.8407 25.4286C64.0722 25.2088 64.2023 24.9108 64.2023 24.6V20.0625C64.2266 19.8971 64.2133 19.7288 64.1635 19.5687C64.1137 19.4086 64.0284 19.2605 63.9134 19.1342C63.7984 19.008 63.6564 18.9065 63.4967 18.8366C63.337 18.7667 63.1635 18.7299 62.9877 18.7289V18.7335C62.9324 18.7332 62.8771 18.7363 62.8223 18.7429H58.0304C57.703 18.7429 57.3891 18.8664 57.1576 19.0862C56.9261 19.3059 56.796 19.604 56.796 19.9148C56.796 20.2256 56.9261 20.5237 57.1576 20.7434C57.3891 20.9632 57.703 21.0867 58.0304 21.0867H59.8227L41.0948 37.5984L30.8149 29.5359C30.5882 29.3595 30.3027 29.2654 30.0096 29.2706C29.7165 29.2757 29.4349 29.3797 29.2152 29.564L7.42104 47.789V5.84527C7.42304 5.68861 7.39193 5.53315 7.32955 5.3881C7.26717 5.24305 7.17479 5.11135 7.05787 5.00078C6.94094 4.89021 6.80185 4.80303 6.64882 4.74438C6.49579 4.68573 6.33192 4.65681 6.16691 4.65933ZM56.796 37.4906H61.7335V67.9593H56.796V37.4906ZM27.171 42.1781H32.1085V67.9593H27.171V42.1781ZM41.9835 46.8656H46.921V67.9593H41.9835V46.8656ZM12.3585 53.8968H17.296V67.9593H12.3585V53.8968Z" fill="black"/>
</svg>
