<svg width="50" height="51" viewBox="0 0 50 51" fill="none" xmlns="http://www.w3.org/2000/svg">
<path d="M24.7101 0.0429199C33.9315 0.204639 41.9412 8.53511 40.6266 17.225C39.5509 24.3312 32.2971 30.1976 24.5 30.1976C15.1184 30.1976 6.73488 21.4375 8.47048 12.4539C9.78335 5.65542 16.5671 0.178857 24.2899 0.0429199C24.5 0.0413574 24.5 0.0413574 24.7101 0.0429199ZM24.3549 4.72964C16.9392 4.86011 10.9131 12.9546 14.3843 19.6203C17.426 25.4632 26.9908 27.2742 32.2398 22.6398C38.3755 17.2234 35.1313 4.9148 24.6452 4.72964C24.5 4.72886 24.5 4.72886 24.3549 4.72964ZM24.7515 33.3234C34.7322 33.4507 44.3493 38.9468 48.795 47.4109C49.7307 49.1921 47.8373 51.5882 45.6756 50.7929C44.0717 50.2023 43.6363 48.2484 42.6078 46.8593C36.3986 38.4718 22.9458 35.525 13.2815 40.8671C9.56397 42.9218 6.54926 46.0117 4.67022 49.6304C4.67022 49.6304 3.80791 50.8984 2.51022 50.9562C0.525724 51.0437 -0.733994 49.0171 0.633725 46.6304C5.22035 38.6226 14.6931 33.2812 24.7515 33.3234Z" fill="black"/>
</svg>
