<svg width="151" height="62" viewBox="0 0 151 62" fill="none" xmlns="http://www.w3.org/2000/svg">
<rect y="3.1001" width="58.9" height="58.9" rx="29.45" fill="white"/>
<path d="M11.3 45V15.8331H23.1751C24.5362 16.3331 25.7446 17.2081 26.8002 18.4581C27.8557 19.7081 28.3835 21.222 28.3835 22.9998C28.3835 26.1387 27.3557 28.3332 25.3001 29.5832V29.7499C27.8557 31.1665 29.1335 33.3888 29.1335 36.4166C29.1335 39.8888 27.3696 42.75 23.8418 45H11.3ZM16.9667 27.8748H21.0918C22.314 27.1248 22.9251 25.9859 22.9251 24.4581C22.9251 22.9303 22.3557 21.722 21.2168 20.8331H16.9667V27.8748ZM16.9667 40.1666H21.2584C21.7584 39.8055 22.2029 39.2361 22.5918 38.4583C23.0084 37.6805 23.2168 36.9027 23.2168 36.1249C23.2168 35.3471 23.0501 34.6388 22.7168 33.9999C22.3834 33.361 21.9668 32.8888 21.4668 32.5832H16.9667V40.1666ZM31.8409 33.2916V23.7081H37.3826V33.3332C37.3826 35.7499 37.8687 37.7638 38.841 39.3749H41.2993C42.216 37.7916 42.6743 35.7777 42.6743 33.3332V23.7081H48.216V32.9999C48.216 35.0832 47.9383 36.9166 47.3827 38.4999C46.8549 40.0833 45.9799 41.875 44.7577 43.875L41.966 48.4167C41.466 49.2778 40.9382 49.9167 40.3826 50.3334C39.8271 50.7501 39.1048 51.0556 38.2159 51.2501H31.6326V46.875H36.1326C36.7159 46.7083 37.202 46.4167 37.5909 46C37.9798 45.5833 38.3826 44.9861 38.7993 44.2083L39.0493 43.75H36.1743C34.8409 42.6666 33.7854 41.2083 33.0076 39.3749C32.2298 37.5138 31.8409 35.486 31.8409 33.2916Z" fill="black"/>
<path d="M74.85 45V15.8331H86.7251C88.0862 16.3331 89.2946 17.2081 90.3501 18.4581C91.4057 19.7081 91.9335 21.222 91.9335 22.9998C91.9335 26.1387 90.9057 28.3332 88.8501 29.5832V29.7499C91.4057 31.1665 92.6835 33.3888 92.6835 36.4166C92.6835 39.8888 90.9196 42.75 87.3918 45H74.85ZM80.5167 27.8748H84.6418C85.864 27.1248 86.4751 25.9859 86.4751 24.4581C86.4751 22.9303 85.9057 21.722 84.7668 20.8331H80.5167V27.8748ZM80.5167 40.1666H84.8084C85.3084 39.8055 85.7529 39.2361 86.1418 38.4583C86.5584 37.6805 86.7668 36.9027 86.7668 36.1249C86.7668 35.3471 86.6001 34.6388 86.2668 33.9999C85.9334 33.361 85.5168 32.8888 85.0168 32.5832H80.5167V40.1666ZM105.558 35.3749H101.099C100.516 36.0971 100.224 36.9999 100.224 38.0833C100.224 39.1666 100.53 40.0138 101.141 40.625H105.558V35.3749ZM96.5992 23.7081H106.933C108.599 24.7081 109.697 25.8609 110.224 27.1665C110.752 28.4443 111.016 30.1943 111.016 32.4165V38.6666C111.016 40.9722 111.072 43.0833 111.183 45H106.433L105.683 43.5C104.599 44.5 103.072 45 101.099 45H98.4742C96.1131 43.4444 94.9325 41.2083 94.9325 38.2916C94.9325 35.3471 96.1409 33.0277 98.5576 31.3332H102.474C103.558 31.3332 104.572 31.6665 105.516 32.3332V30.2499C105.516 29.1665 105.044 28.4443 104.099 28.0832H96.5992V23.7081ZM123.85 23.7081H128.267C129.489 25.2637 130.322 26.8193 130.767 28.3748C131.211 29.9304 131.433 31.8749 131.433 34.2082V45H125.891V33.7916C125.891 31.1526 125.53 29.2499 124.808 28.0832H120.141V45H114.6V23.7081H118.933L119.683 25.2081C120.294 24.6526 120.864 24.2637 121.391 24.0415C121.947 23.8192 122.766 23.7081 123.85 23.7081ZM134.864 45V15.8331H140.405V31.2915H140.989L144.905 23.7081H150.322L145.405 32.9999L150.364 45H144.864L141.03 35.6666H140.405V45H134.864Z" fill="white"/>
</svg>
