<svg width="98" height="40" viewBox="0 0 98 40" fill="none" xmlns="http://www.w3.org/2000/svg">
<rect y="2" width="38" height="38" rx="19" fill="white"/>
<path d="M7.29033 29V10.1826H14.9517C15.8298 10.5052 16.6094 11.0697 17.2904 11.8762C17.9714 12.6826 18.3119 13.6594 18.3119 14.8063C18.3119 16.8314 17.6489 18.2472 16.3227 19.0537V19.1612C17.9714 20.0752 18.7958 21.5089 18.7958 23.4623C18.7958 25.7025 17.6578 27.5484 15.3818 29H7.29033ZM10.9463 17.9515H13.6076C14.3961 17.4676 14.7904 16.7329 14.7904 15.7472C14.7904 14.7615 14.423 13.9819 13.6882 13.4085H10.9463V17.9515ZM10.9463 25.8817H13.7151C14.0377 25.6487 14.3245 25.2813 14.5753 24.7795C14.8442 24.2777 14.9786 23.7759 14.9786 23.2741C14.9786 22.7723 14.8711 22.3154 14.656 21.9032C14.4409 21.491 14.1721 21.1863 13.8495 20.9892H10.9463V25.8817ZM20.5425 21.4462V15.2633H24.1178V21.473C24.1178 23.0322 24.4314 24.3315 25.0587 25.3709H26.6447C27.2361 24.3494 27.5318 23.0501 27.5318 21.473V15.2633H31.1071V21.258C31.1071 22.6021 30.9279 23.7849 30.5695 24.8064C30.229 25.8279 29.6645 26.9839 28.8759 28.2742L27.0748 31.2043C26.7523 31.7599 26.4117 32.1721 26.0533 32.4409C25.6949 32.7097 25.2289 32.9068 24.6555 33.0323H20.4081V30.2097H23.3114C23.6877 30.1022 24.0013 29.914 24.2522 29.6452C24.5031 29.3763 24.763 28.991 25.0318 28.4892L25.1931 28.1935H23.3382C22.478 27.4946 21.797 26.5537 21.2952 25.3709C20.7934 24.1702 20.5425 22.862 20.5425 21.4462Z" fill="#1374DE"/>
<path d="M48.2903 29V10.1826H55.9517C56.8298 10.5052 57.6094 11.0697 58.2904 11.8762C58.9714 12.6826 59.3119 13.6594 59.3119 14.8063C59.3119 16.8314 58.6489 18.2472 57.3227 19.0537V19.1612C58.9714 20.0752 59.7958 21.5089 59.7958 23.4623C59.7958 25.7025 58.6578 27.5484 56.3818 29H48.2903ZM51.9463 17.9515H54.6076C55.3961 17.4676 55.7904 16.7329 55.7904 15.7472C55.7904 14.7615 55.423 13.9819 54.6882 13.4085H51.9463V17.9515ZM51.9463 25.8817H54.7151C55.0377 25.6487 55.3245 25.2813 55.5753 24.7795C55.8442 24.2777 55.9786 23.7759 55.9786 23.2741C55.9786 22.7723 55.8711 22.3154 55.656 21.9032C55.4409 21.491 55.1721 21.1863 54.8495 20.9892H51.9463V25.8817ZM68.1017 22.7903H65.2253C64.849 23.2562 64.6608 23.8387 64.6608 24.5376C64.6608 25.2365 64.858 25.7831 65.2522 26.1774H68.1017V22.7903ZM62.3221 15.2633H68.9888C70.0641 15.9085 70.772 16.6522 71.1125 17.4945C71.453 18.3189 71.6233 19.4479 71.6233 20.8816V24.9139C71.6233 26.4014 71.6591 27.7634 71.7308 29H68.6662L68.1824 28.0322C67.4834 28.6774 66.4978 29 65.2253 29H63.5318C62.0085 27.9964 61.2468 26.5537 61.2468 24.672C61.2468 22.7723 62.0264 21.2759 63.5855 20.1827H66.1125C66.8114 20.1827 67.4655 20.3978 68.0748 20.8279V19.4838C68.0748 18.7849 67.7702 18.3189 67.1608 18.0859H62.3221V15.2633ZM79.9031 15.2633H82.7526C83.5411 16.2669 84.0788 17.2705 84.3655 18.2741C84.6523 19.2777 84.7956 20.5322 84.7956 22.0376V29H81.2203V21.7687C81.2203 20.0662 80.9874 18.8386 80.5214 18.0859H77.5106V29H73.9353V15.2633H76.731L77.2149 16.2311C77.6092 15.8726 77.9766 15.6217 78.3171 15.4784C78.6755 15.335 79.2042 15.2633 79.9031 15.2633ZM87.0088 29V10.1826H90.5841V20.1558H90.9604L93.4873 15.2633H96.982L93.8099 21.258L97.0089 29H93.4604L90.9873 22.9784H90.5841V29H87.0088Z" fill="white"/>
</svg>
