<svg width="60" height="64" viewBox="0 0 60 64" fill="none" xmlns="http://www.w3.org/2000/svg">
<rect y="3.1579" width="60" height="60" rx="30" fill="white"/>
<path d="M11.511 46V16.2883H23.6079C24.9944 16.7977 26.2253 17.689 27.3006 18.9624C28.3759 20.2358 28.9135 21.7779 28.9135 23.5889C28.9135 26.7865 27.8666 29.0219 25.7726 30.2953V30.465C28.3759 31.9082 29.6776 34.1719 29.6776 37.2563C29.6776 40.7934 27.8807 43.708 24.287 46H11.511ZM17.2836 28.555H21.4856C22.7307 27.791 23.3532 26.6308 23.3532 25.0745C23.3532 23.5182 22.7731 22.2873 21.613 21.3818H17.2836V28.555ZM17.2836 41.0764H21.6554C22.1648 40.7085 22.6175 40.1284 23.0137 39.3361C23.4381 38.5438 23.6503 37.7515 23.6503 36.9592C23.6503 36.1669 23.4806 35.4453 23.141 34.7945C22.8014 34.1436 22.377 33.6626 21.8676 33.3513H17.2836V41.0764ZM32.4355 34.0729V24.3105H38.0807V34.1153C38.0807 36.5772 38.5759 38.6287 39.5663 40.2699H42.0706C43.0044 38.657 43.4713 36.6055 43.4713 34.1153V24.3105H49.1165V33.7758C49.1165 35.898 48.8335 37.7656 48.2676 39.3785C47.7299 40.9915 46.8386 42.8166 45.5935 44.854L42.7497 49.4805C42.2403 50.3577 41.7027 51.0085 41.1368 51.433C40.5708 51.8574 39.8351 52.1687 38.9296 52.3668H32.2233V47.91H36.8074C37.4016 47.7403 37.8968 47.4431 38.2929 47.0187C38.6891 46.5942 39.0994 45.9859 39.5239 45.1935L39.7785 44.7266H36.8498C35.4916 43.6231 34.4163 42.1375 33.624 40.2699C32.8317 38.374 32.4355 36.3083 32.4355 34.0729Z" fill="#1374DE"/>
</svg>
