<svg width="63" height="76" viewBox="0 0 63 76" fill="none" xmlns="http://www.w3.org/2000/svg">
<path d="M31.4352 40.0923C22.7689 40.0923 15.7176 31.6281 15.7176 21.2254C15.7176 10.8226 22.7689 2.3584 31.4352 2.3584C40.1014 2.3584 47.1527 10.8226 47.1527 21.2254C47.1527 31.6281 40.1014 40.0923 31.4352 40.0923ZM31.4352 7.07514C24.934 7.07514 19.647 13.4215 19.647 21.2254C19.647 29.0292 24.934 35.3756 31.4352 35.3756C37.9363 35.3756 43.2233 29.0292 43.2233 21.2254C43.2233 13.4215 37.9363 7.07514 31.4352 7.07514Z" fill="black"/>
<path d="M32.221 31.1306H30.6493C29.5481 31.1254 28.4774 30.6952 27.5955 29.9037C26.7135 29.1121 26.067 28.0011 25.7513 26.7346C25.6717 26.4353 25.6427 26.1199 25.666 25.807C25.6893 25.494 25.7645 25.1898 25.8871 24.9122C26.0098 24.6347 26.1774 24.3893 26.3801 24.1905C26.5828 23.9918 26.8166 23.8437 27.0677 23.7549C27.3188 23.6661 27.5821 23.6385 27.8422 23.6735C28.1024 23.7086 28.354 23.8057 28.5824 23.9592C28.8108 24.1126 29.0114 24.3193 29.1723 24.5671C29.3333 24.8149 29.4513 25.0988 29.5196 25.4021C29.6669 25.9988 30.1326 26.4162 30.6493 26.4162H32.221C32.5339 26.4162 32.834 26.267 33.0553 26.0015C33.2765 25.7359 33.4008 25.3756 33.4008 25C33.4008 24.6244 33.2765 24.2642 33.0553 23.9986C32.834 23.733 32.5339 23.5838 32.221 23.5838H30.6493C27.8319 23.5838 25.5411 20.8316 25.5411 17.4521C25.5411 14.0725 27.8319 11.3203 30.6493 11.3203H32.221C34.4235 11.3203 36.3685 13.0042 37.066 15.5135C37.1516 15.8084 37.1876 16.1209 37.1718 16.4326C37.156 16.7444 37.0888 17.0493 36.974 17.3296C36.8593 17.6099 36.6993 17.8601 36.5034 18.0656C36.3074 18.2711 36.0794 18.4278 35.8326 18.5267C35.5858 18.6255 35.3251 18.6646 35.0656 18.6415C34.8061 18.6184 34.553 18.5337 34.321 18.3923C34.089 18.2508 33.8827 18.0555 33.7142 17.8176C33.5456 17.5796 33.418 17.3039 33.339 17.0063C33.2615 16.724 33.1117 16.4782 32.9109 16.3041C32.7102 16.13 32.4687 16.0366 32.221 16.0371H30.6493C30.3366 16.0371 30.0368 16.1861 29.8157 16.4515C29.5947 16.7169 29.4705 17.0768 29.4705 17.4521C29.4705 17.8274 29.5947 18.1873 29.8157 18.4526C30.0368 18.718 30.3366 18.8671 30.6493 18.8671H32.221C35.0384 18.8671 37.3293 21.6193 37.3293 24.9989C37.3293 28.3784 35.0384 31.1306 32.221 31.1306Z" fill="black"/>
<path d="M31.4352 14.15C30.9027 14.15 30.4116 13.8906 30.0402 13.4661C29.9616 13.3482 29.8634 13.2303 29.8045 13.0888C29.7266 12.9685 29.6667 12.8328 29.6277 12.6878C29.5711 12.5539 29.5308 12.4109 29.5078 12.2633C29.4901 12.0982 29.4705 11.9567 29.4705 11.7917C29.4705 11.1785 29.6846 10.5653 30.0402 10.1172C30.7672 9.24462 32.0835 9.24462 32.8301 10.1172C33.1838 10.5653 33.3999 11.1785 33.3999 11.7917C33.3999 11.9567 33.3802 12.0982 33.3586 12.2633C33.3381 12.4114 33.2983 12.5546 33.2407 12.6878C33.2009 12.8324 33.1411 12.9679 33.0639 13.0888C32.9853 13.2303 32.9067 13.3482 32.8281 13.4661C32.4568 13.8906 31.946 14.15 31.4352 14.15ZM31.4352 33.017C30.9027 33.017 30.4116 32.7576 30.0402 32.3331C29.9616 32.2152 29.8634 32.0972 29.8045 31.9557C29.7266 31.8354 29.6667 31.6998 29.6277 31.5548C29.5711 31.4208 29.5308 31.2779 29.5078 31.1303C29.4901 30.9652 29.4705 30.8237 29.4705 30.6586C29.4705 30.0455 29.6846 29.4323 30.0402 28.9842C30.7672 28.1116 32.0835 28.1116 32.8301 28.9842C33.1838 29.4323 33.3999 30.0455 33.3999 30.6586C33.3999 30.8237 33.3802 30.9652 33.3586 31.1303C33.3381 31.2784 33.2983 31.4216 33.2407 31.5548C33.2009 31.6994 33.1411 31.8349 33.0639 31.9557C32.9853 32.0972 32.9067 32.2152 32.8281 32.3331C32.4568 32.7576 31.946 33.017 31.4352 33.017ZM35.3646 73.1093H3.92942C3.40835 73.1093 2.90862 72.8608 2.54017 72.4186C2.17172 71.9763 1.96472 71.3764 1.96472 70.7509V49.5256C1.96472 48.9006 2.17101 48.2992 2.54038 47.8582C3.00012 47.304 7.17706 42.4505 11.7882 42.4505C15.6076 42.4505 20.535 45.9149 22.1913 47.1672H31.4352C32.2951 47.1688 33.1444 47.3959 33.9236 47.8327C34.7028 48.2695 35.393 48.9054 35.946 49.6959C36.4991 50.4864 36.9015 51.4125 37.1251 52.4092C37.3488 53.406 37.3883 54.4493 37.2408 55.4663L52.7443 47.712C53.6398 47.2629 54.6139 47.0867 55.5799 47.1991C56.5459 47.3114 57.4737 47.7088 58.2808 48.3559C59.089 49.0008 59.7517 49.8759 60.2097 50.903C60.6677 51.9301 60.9068 53.0774 60.9056 54.2423C60.9057 54.6546 60.8158 55.0597 60.6448 55.4172C60.4738 55.7747 60.2278 56.0722 59.9311 56.28L36.3548 72.7886C36.0541 72.9985 35.7124 73.1092 35.3646 73.1093ZM5.89411 68.3926H34.8321L56.7189 53.0679C56.5662 52.752 56.3552 52.4825 56.1019 52.2802C55.834 52.0618 55.5247 51.9277 55.2023 51.8902C54.88 51.8527 54.555 51.913 54.2571 52.0656L36.1229 61.1359C35.8826 61.2557 35.6248 61.3174 35.3646 61.3175H19.647C19.1259 61.3175 18.6262 61.069 18.2577 60.6267C17.8893 60.1844 17.6823 59.5846 17.6823 58.9591C17.6823 58.3336 17.8893 57.7337 18.2577 57.2915C18.6262 56.8492 19.1259 56.6007 19.647 56.6007H31.4352C31.941 56.5736 32.4187 56.3132 32.7687 55.8739C33.1186 55.4346 33.3139 54.8502 33.3139 54.2423C33.3139 53.6345 33.1186 53.0501 32.7687 52.6108C32.4187 52.1715 31.941 51.9111 31.4352 51.884H21.6117C21.2246 51.884 20.8435 51.7448 20.5213 51.4901C19.0183 50.2874 14.5132 47.1672 11.7882 47.1672C9.64669 47.1672 7.17706 49.2426 5.89411 50.5609V68.3926Z" fill="black"/>
</svg>
