<svg width="175" height="184" viewBox="0 0 175 184" fill="none" xmlns="http://www.w3.org/2000/svg">
<rect y="9.2" width="174.8" height="174.8" rx="87.4" fill="white"/>
<path d="M33.5355 133V46.4401H68.7778C72.8172 47.9239 76.4033 50.5207 79.5359 54.2305C82.6686 57.9402 84.2349 62.433 84.2349 67.7091C84.2349 77.0246 81.1847 83.5372 75.0843 87.2469V87.7415C82.6686 91.9459 86.4607 98.5409 86.4607 107.527C86.4607 117.831 81.2259 126.323 70.7563 133H33.5355ZM50.3529 82.1769H62.5949C66.2222 79.9511 68.0358 76.5712 68.0358 72.0371C68.0358 67.503 66.3459 63.9169 62.9659 61.2789H50.3529V82.1769ZM50.3529 118.656H63.0896C64.5734 117.584 65.8924 115.894 67.0466 113.586C68.2831 111.278 68.9014 108.969 68.9014 106.661C68.9014 104.353 68.4068 102.251 67.4176 100.355C66.4283 98.4585 65.1917 97.057 63.7078 96.1502H50.3529V118.656ZM94.4955 98.2524V69.8112H110.942V98.376C110.942 105.548 112.385 111.525 115.27 116.306H122.566C125.286 111.607 126.646 105.631 126.646 98.376V69.8112H143.093V97.3868C143.093 103.57 142.268 109.011 140.62 113.709C139.053 118.408 136.457 123.726 132.829 129.661L124.544 143.14C123.06 145.695 121.494 147.592 119.845 148.828C118.196 150.065 116.053 150.971 113.415 151.549H93.8773V138.565H107.232C108.963 138.07 110.406 137.204 111.56 135.968C112.714 134.731 113.91 132.959 115.146 130.651L115.888 129.29H107.356C103.399 126.075 100.266 121.747 97.9579 116.306C95.6497 110.783 94.4955 104.765 94.4955 98.2524Z" fill="black"/>
</svg>
